<?xml version="1.0" encoding="UTF-8"?><svg id="Layer_2" xmlns="http://www.w3.org/2000/svg" viewBox="0 0 446.38 446.42"><defs><style>.cls-1{fill:#9a6c5b;stroke-width:0px;}</style></defs><path class="cls-1" d="M277.86,223.21l153.02-153.02c15.12-15.1,15.14-39.59.05-54.72-15.1-15.12-39.59-15.14-54.72-.05h0l-153.02,153.02L70.17,15.43C55.05.31,30.53.31,15.41,15.43.29,30.55.29,55.07,15.41,70.19l153.02,153.02L15.41,376.22c-15.12,15.12-15.12,39.64,0,54.76,15.12,15.12,39.64,15.12,54.76,0l153.02-153.02,153.02,153.02c15.12,15.12,39.64,15.12,54.76,0s15.12-39.64,0-54.76l-153.11-153.02Z"/></svg>