<?xml version="1.0" encoding="UTF-8"?><svg id="Layer_1" xmlns="http://www.w3.org/2000/svg" viewBox="0 0 447 447"><defs><style>.cls-1{fill:#9a6c5b;}.cls-1,.cls-2{stroke-width:0px;}.cls-2{fill:#fff;}.cls-3{fill:none;stroke:#fff;stroke-miterlimit:10;stroke-width:10px;}</style></defs><circle class="cls-1" cx="223.5" cy="223.5" r="222.26"/><circle class="cls-3" cx="253.53" cy="247.08" r="84.82"/><path class="cls-3" d="M377.52,132.66H68.71v39.36h144.38c11.93-6.27,25.57-9.83,40.06-9.83s28.13,3.56,40.06,9.83h84.31v-39.36Z"/><path class="cls-3" d="M173.16,128.41c0-3.29-2.67-5.96-5.96-5.96h-77.67c-3.29,0-5.96,2.67-5.96,5.96,0,1.3.42,2.49,1.12,3.47h87.36c.7-.98,1.12-2.17,1.12-3.47Z"/><polygon class="cls-3" points="299.79 110.7 276.05 83.44 225.07 83.44 201.42 110.7 201.42 131.87 299.79 131.87 299.79 110.7"/><rect class="cls-3" x="317.97" y="113.37" width="35.45" height="18.14"/><line class="cls-3" x1="104.08" y1="152.29" x2="173.16" y2="152.29"/><line class="cls-3" x1="330.97" y1="152.29" x2="340.43" y2="152.29"/><path class="cls-3" d="M168.51,246.81c0-32.15,17.89-60.13,44.27-74.51H68.71v140.03h130.74c-18.9-15.56-30.95-39.13-30.95-65.52Z"/><path class="cls-3" d="M293.88,172.3c26.37,14.38,44.27,42.36,44.27,74.51,0,26.39-12.05,49.96-30.95,65.52h70.33v-140.03h-83.65Z"/><path class="cls-2" d="M301.45,239.68l-1.46,14.15c-.86,1.19-2.65,2.33-5.35,3.44-2.7,1.1-7.45,2.55-14.26,4.32-1.28,14.13-5.99,25.52-14.13,34.17-8.14,8.65-18.38,12.98-30.72,12.98-8.68,0-15.43-1.89-20.25-5.66-4.82-3.77-7.23-7.49-7.23-11.16,0-1.73,1.87-4.26,5.62-7.6,3.75-3.34,6.51-5.01,8.29-5.01,1.35,0,2.18.5,2.51,1.5.32,1,.5,3.5.53,7.52.03,4.02,1.05,7.39,3.07,10.11,2.02,2.72,4.84,4.08,8.45,4.08,10.89,0,17.84-11.27,20.86-33.8-4.96,1.08-10.59,3.4-16.9,6.95l3.48-10.92c4.58-3.94,9.46-6.82,14.62-8.65.82-8.68,2.3-15.58,4.42-20.7,2.13-5.12,5.62-10.13,10.46-15.04,6.41-.81,10.78-1.27,13.09-1.38-1.83,3.56-3.1,7.01-3.8,10.35-.7,3.34-1.16,9.46-1.37,18.36,7.07-2.32,13.76-4.99,20.07-8.01ZM304.93,190.36c-1.29,7.28-3.32,12.55-6.06,15.81-2.75,3.26-7.95,4.89-15.61,4.89l-25.23-.65c-7.44,0-13.46,1.44-18.07,4.33-4.61,2.88-6.91,6.91-6.91,12.09,0,4.85,2.94,8.65,8.81,11.4,1.99.92,2.99,1.75,2.99,2.51,0,1.51-1.09,3.38-3.28,5.62-2.18,2.24-4.7,3.9-7.56,4.97-7.28-1.99-10.92-6.68-10.92-14.07,0-5.18,2.05-11.66,6.15-19.45,4.1-7.79,9.6-14.15,16.5-19.08,6.9-4.93,14.56-7.4,22.97-7.4.7,0,4.54.28,11.52.85,6.98.57,11.2.85,12.66.85,4.37,0,7.01-.89,7.92-2.67h4.12Z"/><path class="cls-2" d="M87.72,332.33c-.66.59-1.15,1.27-1.48,2.03-.33.76-.63,2.24-.89,4.45-.26,2.21-.58,4.06-.97,5.56s-1.07,2.89-2.03,4.19-2.18,2.31-3.66,3.04c-1.48.73-3.06,1.1-4.76,1.1-1.52,0-2.67-.32-3.48-.96-.8-.64-1.2-1.54-1.2-2.72,0-.42.03-.77.1-1.06.54-.49,1.17-.92,1.91-1.29.74-.37,1.24-.56,1.49-.56.41,0,.62.31.62.94,0,.1-.05.46-.14,1.07-.09.61-.14.98-.14,1.1,0,1.4.6,2.1,1.81,2.1s2.28-.79,3.18-2.38c.9-1.59,1.55-3.96,1.94-7.12.39-3.16.94-5.33,1.64-6.54.7-1.2,1.59-2.12,2.66-2.77,1.07-.64,1.9-.97,2.5-.97.3,0,.6.26.91.77ZM87.15,338.94c1.22,0,2.11-.48,2.67-1.44.56-.96.84-2.01.84-3.15,0-1.57-.52-2.83-1.56-3.77-1.04-.94-2.45-1.41-4.21-1.41-2.37,0-4.5.69-6.39,2.06-1.89,1.37-2.84,2.89-2.84,4.55,0,.99.54,1.71,1.61,2.17.27.11.41.22.41.32v.53c0,.25-.45.56-1.36.94-.91.38-1.5.56-1.79.56-.44,0-.89-.36-1.35-1.08-.46-.72-.68-1.47-.68-2.25,0-1.36.56-2.77,1.67-4.26,1.11-1.48,2.68-2.67,4.7-3.57,2.02-.9,4.34-1.35,6.96-1.35,2.8,0,5.07.59,6.81,1.76,1.74,1.17,2.61,2.68,2.61,4.51,0,2.73-1.94,4.6-5.81,5.61,3.04.95,4.56,2.81,4.56,5.59,0,2.03-.76,3.77-2.28,5.22-1.52,1.45-3.34,2.18-5.46,2.18-.93,0-1.71-.19-2.34-.56-.63-.38-.94-.83-.94-1.37,0-.35.2-.83.6-1.44.4-.6.77-.91,1.11-.91.47,0,.75.55.84,1.64.07.87.34,1.3.8,1.3.76,0,1.44-.85,2.03-2.55.59-1.7.88-3.41.88-5.13,0-2.08-.75-3.24-2.24-3.47l.17-1.25Z"/><path class="cls-2" d="M108.46,348.5c-1.45,1.42-2.75,2.48-3.9,3.15-1.15.68-2.42,1.02-3.81,1.02-1.55,0-2.8-.5-3.75-1.49s-1.43-2.3-1.43-3.91c0-2.42.84-4.6,2.51-6.55,1.67-1.95,3.53-2.93,5.57-2.93,1.06,0,1.91.27,2.55.82.64.55.96,1.26.96,2.15,0,2.36-2.51,4.27-7.52,5.74.46,2.22,1.65,3.33,3.57,3.33.75,0,1.47-.2,2.15-.61.68-.4,1.71-1.3,3.09-2.69v1.97ZM99.51,345.34c2.92-.82,4.38-2.34,4.38-4.55,0-1.09-.4-1.64-1.2-1.64-.75,0-1.47.57-2.15,1.72-.68,1.14-1.03,2.63-1.03,4.47Z"/><path class="cls-2" d="M125.24,348.5c-2.63,2.78-4.89,4.17-6.77,4.17-.76,0-1.38-.27-1.85-.8-.47-.54-.7-1.25-.7-2.15,0-1.22.5-3.08,1.5-5.59.54-1.34.8-2.2.8-2.56s-.14-.55-.43-.55c-.16,0-.37.08-.63.24-.24.16-.52.38-.84.67-.29.26-.6.58-.96.96-.31.32-.64.68-.99,1.09l-.96,1.11c-.42.51-.68,1.05-.79,1.62-.17.97-.29,1.86-.34,2.67-.03.6-.05,1.42-.05,2.44l-3.78.89c-.13-1.54-.19-2.68-.19-3.44,0-1.83.21-3.57.64-5.21.43-1.64,1.11-3.49,2.06-5.54l4.17-.8c-.88,2.36-1.45,4.22-1.73,5.57,1.87-2.08,3.35-3.53,4.45-4.33,1.1-.8,2.07-1.21,2.92-1.21.58,0,1.06.22,1.45.66s.58.99.58,1.65c0,1.09-.49,2.89-1.47,5.4-.67,1.72-1.01,2.84-1.01,3.35,0,.69.28,1.03.84,1.03.83,0,2.18-1.1,4.04-3.3v1.97Z"/><path class="cls-2" d="M143.48,348.5c-1.64,1.63-2.89,2.73-3.75,3.31-.86.57-1.62.86-2.28.86-.81,0-1.45-.39-1.92-1.18-.47-.79-.72-1.94-.73-3.45-.93,1.52-1.95,2.67-3.05,3.45s-2.09,1.18-2.98,1.18c-.97,0-1.82-.46-2.56-1.38-.74-.92-1.11-1.99-1.11-3.22,0-2.54.93-4.9,2.78-7.07,1.85-2.17,3.84-3.26,5.97-3.26.59,0,1.06.09,1.39.26s.7.46,1.1.87l2.44-10.22c2-.47,3.34-.7,4.04-.7.23,0,.34.09.34.27,0,.13-.29,1.31-.85,3.54-2.28,8.93-3.42,14.32-3.42,16.17,0,.43.09.78.27,1.04.18.26.42.39.72.39.73,0,1.93-.95,3.6-2.84v1.97ZM131.12,349.4c1.12,0,2.16-.95,3.13-2.84.97-1.89,1.45-3.66,1.45-5.31,0-.67-.15-1.21-.45-1.61-.3-.4-.7-.6-1.19-.6-1.06,0-2.08.99-3.08,2.96-.99,1.98-1.49,3.76-1.49,5.36,0,.63.15,1.12.44,1.49.29.36.69.55,1.19.55Z"/><path class="cls-2" d="M158.81,348.5c-.58.51-1.14.87-1.69,1.09s-.98.32-1.3.32c-.82,0-1.64-.32-2.44-.96-1.64,2.48-3.52,3.73-5.64,3.73-1.32,0-2.39-.5-3.21-1.49s-1.23-2.31-1.23-3.95c0-2.6.92-4.83,2.77-6.69,1.85-1.86,4.05-2.79,6.61-2.79.97,0,1.68.11,2.13.32s.73.46.83.74c.1.29.15.64.15,1.08,0,2.13-.58,4.75-1.74,7.84.58.54,1.19.8,1.83.8.76,0,1.74-.67,2.94-2v1.97ZM153.17,338.94c-.17-.07-.42-.1-.74-.1-1.48,0-2.64.77-3.48,2.32-.84,1.55-1.26,3.36-1.26,5.43,0,1.15.18,2.05.55,2.68.36.64.87.96,1.52.96.81,0,1.69-.75,2.63-2.24-1.07-1.34-1.61-2.79-1.61-4.34,0-1.82.79-3.4,2.38-4.72Z"/><path class="cls-2" d="M171.57,348.5c-2.86,2.8-5.06,4.2-6.61,4.2-.69,0-1.28-.29-1.76-.88-.48-.59-.72-1.31-.72-2.18,0-1.61.86-3.76,2.58-6.46-.84.43-1.77.73-2.77.91-.74,1.37-1.9,2.84-3.49,4.41h-.39v-1.54c.89-.92,1.69-1.91,2.41-2.97-.98-.43-1.47-1.08-1.47-1.93s.3-1.81.9-2.81c.6-1,1.42-1.5,2.47-1.5.89,0,1.33.46,1.33,1.37,0,.72-.26,1.74-.77,3.08,1.89-.21,3.54-1.65,4.96-4.34l1.56-.07-1.59,4.38c-.66,1.85-1.09,3.1-1.28,3.77-.19.67-.29,1.26-.29,1.77,0,.48.11.86.33,1.15.22.29.52.43.9.43.41,0,.8-.14,1.18-.42.38-.28,1.22-1.05,2.53-2.32v1.97Z"/><path class="cls-2" d="M185.45,348.5c-1.18,1.33-2.36,2.36-3.52,3.08-1.16.72-2.2,1.09-3.11,1.09-.43,0-1.02-.16-1.78-.49-.48,2.51-.9,5.21-1.27,8.11-1.19.16-2.61.4-4.28.74.36-3.12,1-7.17,1.9-12.15-.12-.22-.35-.76-.67-1.64l-1.15,1.26h-.39v-1.54l3.26-3.38c.62-3.06,1.12-5.27,1.51-6.64.39-1.37.93-2.88,1.62-4.54.69-1.66,1.13-2.61,1.32-2.85.18-.25.62-.48,1.33-.7.7-.22,1.45-.43,2.25-.63.8-.2,1.22-.3,1.28-.3.43,0,.79.28,1.06.85s.41,1.31.41,2.23c0,1.59-.42,3.13-1.26,4.61-.84,1.48-2.43,3.3-4.77,5.46l-1.44,7.14c.56,1.19,1.39,1.79,2.51,1.79,1.59,0,3.32-1.16,5.19-3.47v1.97ZM179.71,338.76c1.33-1.16,2.38-2.41,3.13-3.75.76-1.34,1.14-2.57,1.14-3.7,0-.48-.09-.87-.26-1.18-.18-.31-.4-.46-.66-.46-.5,0-1.01.66-1.53,1.97-.52,1.31-1.12,3.69-1.82,7.13Z"/><path class="cls-2" d="M199.31,348.5c-1.18,1.33-2.36,2.36-3.52,3.08-1.16.72-2.2,1.09-3.11,1.09-.43,0-1.02-.16-1.78-.49-.48,2.51-.9,5.21-1.27,8.11-1.19.16-2.61.4-4.28.74.36-3.12,1-7.17,1.9-12.15-.12-.22-.35-.76-.67-1.64l-1.15,1.26h-.39v-1.54l3.26-3.38c.62-3.06,1.12-5.27,1.51-6.64.39-1.37.93-2.88,1.62-4.54.69-1.66,1.13-2.61,1.32-2.85.18-.25.62-.48,1.33-.7.7-.22,1.45-.43,2.25-.63.8-.2,1.22-.3,1.28-.3.43,0,.79.28,1.06.85s.41,1.31.41,2.23c0,1.59-.42,3.13-1.26,4.61-.84,1.48-2.43,3.3-4.77,5.46l-1.44,7.14c.56,1.19,1.39,1.79,2.51,1.79,1.59,0,3.32-1.16,5.19-3.47v1.97ZM193.57,338.76c1.33-1.16,2.38-2.41,3.13-3.75.76-1.34,1.14-2.57,1.14-3.7,0-.48-.09-.87-.26-1.18-.18-.31-.4-.46-.66-.46-.5,0-1.01.66-1.53,1.97-.52,1.31-1.12,3.69-1.82,7.13Z"/></svg>